<?xml version="1.0" encoding="utf-8"?>
<!-- Generator: Adobe Illustrator 15.0.0, SVG Export Plug-In . SVG Version: 6.00 Build 0)  -->
<!DOCTYPE svg PUBLIC "-//W3C//DTD SVG 1.1//EN" "http://www.w3.org/Graphics/SVG/1.1/DTD/svg11.dtd">
<svg version="1.1" id="Layer_1" xmlns="http://www.w3.org/2000/svg" xmlns:xlink="http://www.w3.org/1999/xlink" x="0px" y="0px"
	 width="93px" height="53px" viewBox="0 0 93 53" enable-background="new 0 0 93 53" xml:space="preserve">
<g>
	<g>
		<path d="M35.164,17.791c0,0.55-0.418,1.167-0.929,1.37l-17.516,6.969c-0.511,0.203-0.511,0.536,0,0.739l17.516,6.967
			c0.511,0.204,0.929,0.82,0.929,1.37v4.071c0,0.55-0.418,0.834-0.929,0.631L9.274,29.984c-0.511-0.203-0.929-0.819-0.929-1.369
			v-4.231c0-0.55,0.418-1.166,0.929-1.37l24.961-9.924c0.511-0.204,0.929,0.081,0.929,0.63V17.791z"/>
	</g>
	<g>
		<path d="M50.602,7.691c0.192-0.515,0.8-0.937,1.35-0.937h4.019c0.55,0,0.843,0.421,0.65,0.937L42.588,45.31
			c-0.192,0.515-0.8,0.937-1.35,0.937h-4.016c-0.55,0-0.843-0.422-0.65-0.937L50.602,7.691z"/>
	</g>
	<g>
		<path d="M57.834,35.206c0-0.55,0.418-1.166,0.929-1.369l17.518-6.968c0.511-0.203,0.511-0.536,0-0.739l-17.518-6.969
			c-0.511-0.203-0.929-0.82-0.929-1.37v-4.07c0-0.55,0.418-0.834,0.93-0.63l24.962,9.924c0.512,0.204,0.93,0.82,0.93,1.37v4.231
			c0,0.55-0.418,1.166-0.93,1.369l-24.962,9.924c-0.512,0.203-0.93-0.081-0.93-0.631V35.206z"/>
	</g>
</g>
</svg>
