<?xml version="1.0" encoding="utf-8"?>
<!-- Generator: Adobe Illustrator 15.0.0, SVG Export Plug-In . SVG Version: 6.00 Build 0)  -->
<!DOCTYPE svg PUBLIC "-//W3C//DTD SVG 1.1//EN" "http://www.w3.org/Graphics/SVG/1.1/DTD/svg11.dtd">
<svg version="1.1" id="Layer_1" xmlns="http://www.w3.org/2000/svg" xmlns:xlink="http://www.w3.org/1999/xlink" x="0px" y="0px"
	 width="85.973px" height="100px" viewBox="0 0 85.973 100" enable-background="new 0 0 85.973 100" xml:space="preserve">
<path opacity="0.05" fill="#FFFFFF" d="M80.061,44.314c4.266-8.882,1.044-19.685-7.632-24.693l-2.012-1.161
	c-0.069,1.279-0.317,2.723-0.653,4.003c-0.027,0.093-0.047,0.185-0.073,0.276c-0.317,1.091-0.736,2.166-1.262,3.212
	c0.523-1.048,0.944-2.121,1.262-3.212c-1.801,1.281-4.254,1.482-6.293,0.304l-0.001,0.002l-4.953-2.858
	c0.027-0.044,0.062-0.077,0.088-0.123c1.458-2.524,0.593-5.753-1.933-7.212c-2.526-1.457-5.755-0.592-7.213,1.933
	c-0.026,0.046-0.037,0.092-0.062,0.137l-4.936-2.849l0.001-0.002c-2.04-1.178-3.093-3.403-2.883-5.603
	c0.067-0.07,0.136-0.131,0.204-0.2c0.939-0.932,2.064-1.866,3.138-2.567l-2.009-1.161c-4.196-2.421-8.923-3.048-13.323-2.146
	l-0.566,2.766l-1.865-2.103c-0.311,0.107-0.618,0.225-0.925,0.349l-0.308,1.517L24.962,1.92c-3.289,1.606-6.151,4.173-8.119,7.582
	c-0.328,0.569-0.625,1.146-0.889,1.734c-0.525,1.174-0.924,2.377-1.202,3.596c-0.41,1.824-0.542,3.682-0.414,5.509
	s0.521,3.628,1.159,5.34c0.426,1.142,0.962,2.243,1.604,3.292c0.641,1.046,1.387,2.039,2.234,2.954
	c1.27,1.375,2.765,2.586,4.474,3.571l2.01,1.161c0.077-1.407,0.362-2.985,0.756-4.373c0.005-0.02,0.012-0.038,0.017-0.058
	c1.687-1.203,3.984-1.401,5.896-0.298l0.001-0.002l6.258,3.613l-2.4,4.157l-2.502,4.335l-1.252,2.167l-2.503,4.337l-1.252,2.168
	l-2.233,3.869l-0.268,0.464l-0.001,0.002l-1.252,2.167l-2.503,4.337l-1.252,2.168l-2.502,4.335l-1.252,2.167l-1.048,1.816
	l-1.73-0.999L4.04,91.663l0.72,0.416c-1.458,2.525-0.593,5.754,1.933,7.213c2.526,1.457,5.755,0.593,7.213-1.933l0.72,0.415
	l10.756-18.631l-1.646-0.949l1.454-2.519l-3.974,1.063l0,0l3.975-1.065l1.252-2.168l2.096-3.63l0.408-0.707l1.252-2.167l0.974-1.688
	l1.528-2.646l1.114-1.931l0.138-0.239l2.502-4.333l-7.213,1.931H29.24l7.215-1.933l1.252-2.169l2.502-4.335l1.252-2.168l2.503-4.337
	l1.252-2.167l0.74-1.281l6.189,3.573l-0.001,0.001c1.914,1.106,2.892,3.193,2.691,5.256c0.732-0.775,1.411-1.623,2.018-2.54
	c-0.607,0.919-1.285,1.765-2.018,2.54c-0.014,0.016-0.027,0.03-0.039,0.044c-1.004,1.037-2.231,2.07-3.411,2.842l2.012,1.161
	c1.706,0.985,3.502,1.675,5.329,2.089c1.218,0.275,2.447,0.424,3.675,0.456c1.143,0.031,2.278-0.055,3.399-0.227l0.927-4.53
	l0.434-2.119l1.347,1.518l2.949,3.327c1.571-0.789,3.047-1.791,4.366-3.008c0.916-0.846,1.76-1.793,2.512-2.836
	c0.095-0.134,0.174-0.277,0.267-0.41l-1.795-2.72L80.061,44.314z M27.294,15.566c0.667-1.155,2.142-1.548,3.294-0.884l4.158,2.4
	l-2.412,4.179l-4.158-2.401C27.024,18.196,26.628,16.718,27.294,15.566z M24.142,30.508c-0.458-0.366-0.887-0.768-1.308-1.177
	c0.421,0.409,0.851,0.809,1.309,1.175l2.444,1.732L24.142,30.508z M50.31,32.165c-1.149,1.99-3.693,2.672-5.684,1.522
	c-1.991-1.149-2.675-3.693-1.525-5.686l3.077-5.329c1.15-1.992,3.696-2.674,5.688-1.524s2.672,3.695,1.521,5.686L50.31,32.165z
	 M65.621,40.48l-4.157-2.4l2.412-4.179l4.157,2.4c1.154,0.667,1.55,2.141,0.884,3.296C68.251,40.749,66.776,41.146,65.621,40.48z"/>
</svg>
