<?xml version="1.0" encoding="utf-8"?>
<!-- Generator: Adobe Illustrator 15.0.0, SVG Export Plug-In . SVG Version: 6.00 Build 0)  -->
<!DOCTYPE svg PUBLIC "-//W3C//DTD SVG 1.1//EN" "http://www.w3.org/Graphics/SVG/1.1/DTD/svg11.dtd">
<svg version="1.1" id="Layer_1" xmlns="http://www.w3.org/2000/svg" xmlns:xlink="http://www.w3.org/1999/xlink" x="0px" y="0px"
	 width="1920px" height="135px" viewBox="-0.005 40 1920 135" enable-background="new -0.005 40 1920 135" xml:space="preserve">
<g>
	<path fill="#353535" d="M712.697,85.738C717.581,85.296,717.581,85.295,712.697,85.738L712.697,85.738z"/>
	<path fill="#353535" d="M1661.175,84.091c0.158-0.051,0.315-0.081,0.475-0.085c0.973-0.176,1.946-0.351,2.919-0.525
		c0.148-0.02,0.298-0.043,0.446-0.063c0.151-0.044,0.303-0.09,0.455-0.135c-0.302,0.055-0.603,0.108-0.903,0.162
		c-0.048,0.006-0.097-0.023-0.146-0.018c-1.272,0.231-2.544,0.443-3.817,0.655c-0.212,0.073-0.424,0.122-0.637,0.169
		c0.249-0.028,0.498-0.049,0.747-0.078C1660.868,84.146,1661.021,84.118,1661.175,84.091z"/>
	<path fill="#353535" d="M1920.264,78.723c0.608-0.484,1.104-1.136,1.466-2.035c-9.113,1.774-19.796,2.623-28.962,3.987
		c-12.484,1.818-25.102,2.06-37.697,2.199c5.897-0.417,40.024-6.062,40.342-5.504c-4.023-4.478-50.793,5.782-60.162,4.192
		c8.465-3.467,18.37-6.594,27.779-10.306l0.799-0.263c-0.066,0.005-0.119,0.011-0.176,0.017c7.347-2.926,14.361-6.225,20.115-10.347
		c-0.139,0.051-0.275,0.104-0.416,0.155c1.361-0.834,2.607-1.744,3.687-2.758c-10.066,3.537-20.219,7.026-30.452,10.216
		c-0.02-0.166-0.072-0.32-0.165-0.464c10.104-3.142,20.204-6.668,29.884-10.374c-7.172,2.268-32.349,8.829-36.611,10.087
		c0.105-0.104,0.224-0.208,0.325-0.311c-2.021,0.316-4.081,0.811-5.827,1.291c0.222-0.104,0.172-0.261,0.156-0.372
		c-2.781,0.446-4.722,1.099-7.597,1.58c2.511-1.104,13.329-2.193,14.557-4.007c-4.653,0.426-9.311,1.136-13.921,2.044
		c7.077-1.947,12.33-2.409,17.76-6.087c-6.943,2.401-14.381,2.588-21.585,4.062c1.938-0.892,3.841-1.801,5.527-2.685
		c-6.306,1.641-12.847,3.185-18.47,4.444c0.726-0.207,0.608-0.35,0.599-0.462c-0.163,0.031-0.319,0.061-0.479,0.092
		c6.999-2.273,16.558-2.268,22.498-6.542c-11.182,2.963-22.708,5.02-34.29,7.049c1.688-3.273,31.111-6.938,35.827-8.368
		c0.409-0.501-22.354,3.143-26.24,3.864c0.429-0.08,0.855-0.159,1.286-0.239c0.079-0.101,0.153-0.198,0.265-0.323
		c-0.015,0.004-0.033,0.011-0.048,0.015c0.515-0.317,0.954-0.751,1.304-1.323c-2.503,0.834-5.284,2.205-7.896,2.777
		c0.132-0.066,0.263-0.132,0.396-0.198l-0.085,0.029c0.078-0.035,0.159-0.064,0.235-0.104c-1.63,0.353-5.353,1.125-8.168,1.643
		l0.155-0.054c-0.421,0.084-0.691,0.139-0.837,0.17c4.574-0.974,9.635-3.224,14.023-4.815c-13.545,2.816-26.15,6.994-39.826,9.218
		c-15.877,2.583-45.101,13.279-60.413,10.385c6.791-1.803,13.876-2.665,20.729-4.275l-3.479,0.463
		c3.845-0.768,8.277-2.278,12.801-3.817c-15.868,2.786-34.608,6.039-37.361,6.495c-3.429,0.152,7.192-4.456,8.168-4.615
		c0.806-0.238,1.679-0.48,2.577-0.724c-0.859,0.237-1.724,0.471-2.577,0.724l14.179-2.23c6.398-1.558,12.525-2.645,18.646-4.979
		c-7.938,1.538-15.977,2.973-23.879,4.85c-11.183,1.83-22.332,3.783-33.474,5.772c-10.088,2.147-20.194,4.101-30.242,5.456
		c-1.107,0.318-2.215,0.583-3.323,0.583c0.002,0,0.002,0,0.005,0c-0.016,0-0.031,0.004-0.047,0.005
		c-0.158,0.028-0.316,0.057-0.475,0.085c-0.055,0.018-0.108,0.027-0.163,0.052c-0.1,0.012-0.198,0.02-0.298,0.031
		c-1.205,0.217-2.41,0.436-3.616,0.65c0.645-0.143,1.285-0.275,1.93-0.411c0.313-0.038,0.626-0.092,0.939-0.161
		c-6.11,0.688-12.195,1.055-18.236,1.161c1.791-0.201,3.569-0.583,5.318-1.03c-5.892-0.601-11.784-1.227-18.745-1.466l2.143,0.397
		c-7.502-0.138-12.851-1.105-19.263-1.549c8.872,1.387,20.345,2.036,28.859,3.563c-37.983,0.583-80.176,1.007-117.7-4.594
		l3.119,0.635c-52.13-0.073-103.196,5.048-155.242,1.074c5.7,0.008,11.245-0.151,16.925-0.748
		c-5.421-0.317-14.011-0.148-19.396-0.603c33.646,0.271,66.986-2.026,100.653,0.074l-11.789-1.737
		c8.122-1.223,16.93-1.297,25.129-1.457c-9.102-1.58-20.896-2.031-30.028-3.056c6.438,0.183,11.813,0.997,19.308,1.022l-2.144-0.379
		c18.108,0.326,37.446-3.935,55.189,1.02c-11.069-3.208-22.685-3.834-33.737-7.113c2.959-0.896,6.073-1.522,9.167-1.849
		c-6.809-3.768-15.329-4.039-23.733-3.817l0.547,1.497c-10.81-0.824-22.611,1.251-33.896,1.208l3.235,0.43
		c-5.32,2.107-12.613,1.18-18.745,0.532c-6.246,0.489-12.443,0.589-18.545-0.067l3.278-0.009l-2.768-0.342l5.478-0.003
		c-5.005-0.152-9.814-0.336-14.761-0.162l1.064-0.213c-7.313-0.658-14.746-0.569-21.972,0.73c2.972-0.522,5.94-1.037,8.913-1.543
		l-10.572,0.807l0.475-0.551c-8.027,0.238-15.84,0.942-23.813,1.751c2.55-0.368,5.1-0.735,7.646-1.103
		c-5.698-0.583-13.351,0.874-19.855,0.555l1.008,0.183c-19.857,0.102-40.883,2.132-60.037,7.124
		c2.704-0.186,5.402-0.376,8.102-0.568c-3.604,0.322-7.205,0.666-10.806,1.043l2.704-0.475c-14.873,0.814-31.617,5.383-46.346,4.54
		l2.487-0.623c-9.508-2.326-28.587,2.801-39.873-0.164c-1.264,0.104-2.159,0.151-2.181,0.088c0.018,0.042,0.088,0.091,0.18,0.14
		c-1.159,0.146-2.344,0.233-3.545,0.28c-10.508-2.053-21.068-3.509-31.631-4.819c-6.314-1.483-12.463-2.898-18.072-3.566
		c0.01-0.001,0.019-0.001,0.026-0.002c1.588,0.038-20.66-2.139-19.138-2.001c0.4-0.042,0.804-0.089,1.207-0.127
		c-1.974-0.155-3.966-0.28-5.968-0.394c3.256-1.926,7.856-3.158,11.495-4.084c-4.633-0.672-10.384,0.247-14.963,0.262
		c3.099-0.533,5.854-0.36,9.424-1.142l-1.107-0.136c9.171-1.74,17.25-5.475,26.605-3.921c-5.801-1.326-11.646-2.495-17.351-4.22
		c1.175-1.328,2.683-2.189,4.521-2.584c-3.232-2.921-8.425-3.298-13.115-1.474l0.609,1.398c-4.724,1.041-10.537,3.768-16.094,4.939
		l1.615,0.079c-2.152,2.867-7.064,2.091-10.084,1.854c8.729-2.366,17.437-6.436,25.479-10.564
		c-11.396,2.077-20.674,11.571-32.12,10.904c0.548,0.004,1.188,0,1.617,0.016c-0.382-0.128-0.908-0.242-1.397-0.359
		c1.021-0.006,1.703,0.032,2.521,0.042c-2.411-0.317-4.822-0.381-7.233-0.194l0.51-0.209c-3.619-0.78-7.341-0.584-10.821,0.614
		c1.384-0.501,2.771-0.992,4.165-1.47l-5.101,0.74l0.152-0.541c-4.191,0.22-7.78,0.747-11.641,2.107l3.669-1.331
		c-1.805-0.237-6.563,1.275-9.918,1.51l0.541,0.1c-18.043,7.776-37.455,5.927-56.92,7.117c0.9-0.096,1.097-0.516,0.583-1.258
		c-2.246,1.2-4.843,2.144-7.683,2.896c-11.646,0.847-23.288,1.852-34.919,3.002c-7.681,0.088-14.953,0.142-20.741,0.769
		c-20.033,2.17-40.394,7.067-60.476,4.988c-33.976,2.146-69.436,6.456-103.501,3.372c-1.167,2.646,23.166,3.322,46.188,4.182
		c-30.285,3.79-64.57,5.37-90.821-1.116c-4.592-3.553,9.702-8.471-14.392-9.245c-0.855,0.514-8.753,3.563-13.274,3.244
		c0.809,0.07,12.602,2.322,10.11,3.604c-5.255,2.699-14.986,3.795-20.286,2.664c-14.171,4.459-33.744,3.724-49.17,0.777
		c0.634,0.297,1.639,0.611,2.763,0.938c-2.683-0.188-5.664-0.325-9.234-0.344c2.066,0.145,4.063,0.64,5.985,1.502l-14.961,0.231
		c8.757,1.218,17.068,0.277,25.762,2.306c-16.136,2.651-33.582-3.59-49.471-6.104c8.814,1.522,17.307,3.856,25.739,6.795
		c-8.091,0.808-15.659-0.731-23.714-1.869l9.068,2.548c-5.061,0.354-10.271,0.18-15.339-0.502l5.77,0.984
		c-11.97,0.056-23.937-0.168-35.903-0.223c14.466,0.199,28.885,0.99,43.292,2.281c-11.15,3.328-22.323-2.342-32.572,1.143
		l6.353,0.979c-4.343,0.074-8.683,0.141-13.019,0.18c4.717,0.188,9.175,0.928,13.821,1.348c-4.688,0.658-9.457,0.777-14.188,0.369
		c1.646,0.158,3.322,0.316,5.012,0.476c-6.295,0.353-12.489,0.324-18.786-0.55c2.331,0.361,5.095,0.73,8.021,1.105
		c-39.967,1.943-84.212-4.104-124.103-7.588c5.566,0.834,11.145,1.641,16.729,2.41c-11.932,0.819-23.979,0.113-35.922-0.109
		c12.896,2.238,29.705,3.41,42.697,4.867c-9.187-0.502-16.813-1.607-27.507-2.109l3.037,0.513
		c-26.292-1.473-52.797-0.055-78.636-5.563c15.688,4.373,31.981,5.92,47.707,10.141c-6.627,0.896-13.615,0.309-20.22-1.038
		c0.021,0.001,0.04,0.006,0.061,0.007c0.544,0.088,0.631,0.047,0.645-0.029l-0.06-0.008c0.333-0.037,0.664-0.103,0.991-0.222
		c-9.26-0.935-19.155-3.354-28.435-2.765c13.229,1.842,26.477,3.57,38.839,4.863l-4.99,0.291l0.405,0.51
		c-17.997,0.576-35.582-3.31-53.895-1.303l6.375,0.051c-7.138,0.32-13.555,1.893-20.498,0.912l1.581,0.099
		c-6.676-1.3-13.272-2.896-19.875-4.521l7.567,1.738l-3.75-1.161l4.563,0.979c-5.754-1.399-11.553-2.584-17.396-3.553l0.689,0.176
		l-2.954-0.526c9.896,2.554,19.753,5.272,29.727,7.53c-11.948-0.563-25.544,0.108-38.188,0.061l0.937,0.825
		c-2.469-0.123-3.921-0.47-6.622-0.524l2.24,0.713c-25.608-0.675-52.973-1.617-77.283-7.978c2.853,0.36,6.829,0.646,7.047,0.688
		c3.715-4.682,3.587-8.429-2.564-11.889c-0.924,0.233-1.526,2.938-4.492,1.443c1.699,1.182,2.156,2.71,1.344,4.589
		c-8.152,5.261-23.092-7.976-28.682-10.615c1.221,1.237,5.328,3.154,5.52,4.347l-8.216-3.799c2.46,2.37,9.427,5.034,12.304,7.598
		c-11.373-2.994-22.923-8.566-34.421-13.105c5.47,2.273,10.52,5.244,15.148,8.913c-5.853,0.515-8.001-1.469-14.759-3.905
		l5.299,3.274c-3.178-0.116-6.585-0.753-9.663-1.792c5.69,2.324,11.299,4.794,16.901,7.334c-3.007,0.283-7.003-0.407-10.145-1.702
		l2.739,1.154l-4.188-1.386l6.285,3.114c-3.045-1.518-6.446-2.739-9.707-3.483l6.911,2.617c-7.488-2.125-14.607-5.619-21.842-5.121
		l6.452,2.48l-3.747-1.102l5.48,2.295l-6.996-2.202c4.783,2.202,13.333,4.11,19.063,6.149c-8.452-1.521-16.734-3.9-25.182-5.356
		c7.031,2.012,15.03,4.057,19.938,6.51c-9.638-2.257-18.905-5.707-28.612-7.69c4.604,1.778,12.071,3.99,16.618,5.879
		c-29.186-9.383-58.852-16.049-89-21.787c3.501,1.015,6.983,2.064,10.449,3.146c-7.515,0.134-15.391-0.728-22.887-1.215
		c8.11,2.246,18.628,4.036,26.619,6.345c-5.71-1.068-10.409-2.558-17.143-3.358l1.88,0.599c-16.905-2.339-32.914-0.215-49.741-2.822
		c10.092,2.254,20.36,3.543,30.079,7.159c-2.59,1.015-5.309,1.509-8.155,1.479c0.481,1.611,1.448,2.637,2.884,3.093
		c-10.404-0.489-24.81-0.622-35.218-0.203c-1.124,0.044-1.899,0.399-2.38,0.91h-0.596V187h0.273h51.909h1873.571v-41.445v-7v-3v-3
		V79.839c0,0.29-4.054,0.688-7.035,1.058c2.38-0.604,5.984-1.443,7.293-2.426C1921.264,78.563,1920.763,78.634,1920.264,78.723z
		 M1855.818,70.15c1.486-0.438,3.035-0.864,4.621-1.289c-1.611,0.553-3.22,1.093-4.896,1.632
		C1855.64,70.378,1855.732,70.264,1855.818,70.15z M1854.938,70.414c-1.313,0.438-2.63,0.875-3.943,1.313
		C1852.227,71.268,1853.555,70.834,1854.938,70.414z M1839.875,77.059c0.08-0.041,0.386-0.181,1.045-0.47
		C1840.568,76.744,1840.224,76.901,1839.875,77.059c-0.242,0.128,1.512-0.604,1.146-0.513c2.153-0.557,4.303-1.146,6.438-1.764
		c-3.734,1.057-6.07,1.659-8.749,2.805C1839.093,77.409,1839.485,77.234,1839.875,77.059z M642.756,86.295
		c0.189,0.008,0.547,0.021,0.8,0.033C643.388,86.322,643.129,86.311,642.756,86.295z M648.387,87.359l-1.192-0.223
		c0.913,0.104,1.829,0.174,2.749,0.197L648.387,87.359z M653.52,89c-0.012,0-0.028,0-0.041,0c-0.025,0-0.052,0-0.078,0
		c-0.01,0-0.019,0-0.029,0c0.786-1,1.461-0.284,2.036,0.02C654.783,89.012,654.154,89,653.52,89z M170.255,85.932
		c0.417,0.105,0.784,0.199,1.119,0.286C171.001,86.123,170.625,86.025,170.255,85.932z M70.13,100.455c0.001-0.018,0-0.032,0-0.032
		c0.004,0,0.01,0.001,0.016,0.001c0.001,0.001,0.018,0.016,0.016,0.034C70.151,100.457,70.141,100.456,70.13,100.455z
		 M92.773,89.404l0.696,0.092c0.054,0.01,0.107,0.025,0.162,0.036L92.773,89.404z M93.797,89.568
		c0.563,0.123,1.112,0.303,1.644,0.552L93.797,89.568z M120.357,104.702c-0.318-0.066-0.643-0.132-0.962-0.197
		c0.325,0.067,0.654,0.13,0.978,0.199C120.368,104.703,120.363,104.703,120.357,104.702z M146.453,107.761
		c4.799,0.657,5.572,0.921,6.457,1.123C150.748,108.577,148.595,108.206,146.453,107.761z M158.876,109.555
		c-0.027-0.003-0.054-0.007-0.082-0.009c0.034,0.003,0.063,0.005,0.097,0.009H158.876z M218.112,95.5
		c0.85,0.182,1.388,0.305,1.424,0.313l0.884,0.483c-0.219-0.039-7.649-1.837-12.609-2.532c1.396,0.174,2.975,0.424,4.517,0.692
		c-2.238-0.442-4.508-0.826-6.198-0.97C209.582,93.734,215.429,94.923,218.112,95.5z M202.914,99.837
		c-0.166,0.028-0.292-0.009-0.381-0.104c0.12,0.082,0.245,0.115,0.373,0.103c0.006,0,0.011,0.002,0.016,0.001
		C202.919,99.836,202.916,99.836,202.914,99.837z M193.778,94.555c-3.158-1.211-13.101-4.937-15.188-5.568
		c11.446,3.469,23.209,6.076,34.547,9.729C206.275,97.049,199.899,96.555,193.778,94.555z M247.188,105.658
		c8.191,0.412,16.693,0.029,24.839,1.052C263.491,106.622,255.432,106.073,247.188,105.658z M280.524,108.555l-1.47-0.326
		c0.64,0.123,1.28,0.237,1.907,0.326H280.524z M494.221,108.98c0.97-0.168,2.239-0.129,3.511-0.008
		C496.564,108.898,495.393,108.904,494.221,108.98z M505.22,108.383c0.41,0.049,0.817,0.086,1.227,0.133
		C506.232,108.497,505.854,108.459,505.22,108.383z M525.128,110.816c-1.01-0.118-2.018-0.242-3.025-0.364
		c0.011,0,0.022,0.001,0.033,0.001c1.175,0.142,2.358,0.253,3.542,0.35C525.182,110.787,524.871,110.786,525.128,110.816
		c0.422,0.018,0.854,0.024,1.277,0.041c0.062,0.004,0.123,0.01,0.184,0.015C526.204,110.857,525.726,110.841,525.128,110.816z
		 M523.913,110.527c-0.502-0.021-1.003-0.043-1.504-0.064c1.934,0.079,3.87,0.143,5.804,0.21
		C526.78,110.625,525.346,110.576,523.913,110.527z M599.94,101.161c1.172-0.084-4.759-0.445-1.582-0.14
		c0.416,0.039,0.833,0.077,1.254,0.113c-0.52-0.045-0.933-0.082-1.254-0.113c-0.759-0.068-1.51-0.142-2.25-0.213
		c2.709,0.188,5.424,0.252,8.155,0.076C602.825,100.979,601.382,101.072,599.94,101.161z M612.865,99.79
		c-0.483-0.019-0.966-0.054-1.449-0.072c0.694-0.028,1.381-0.086,2.056-0.198L612.865,99.79z M620.447,97.273l-0.208-0.033
		c0.245,0.017,0.489,0.021,0.729,0.011C620.795,97.259,620.62,97.266,620.447,97.273z M621.608,97.465l-0.106-0.017
		c0.133,0.028,0.27,0.028,0.405,0.003L621.608,97.465z M645.083,96.508c-0.514-0.048-1.022-0.148-1.521-0.354
		c0.603-0.096,1.203-0.143,1.805-0.165l-1.805,0.165C644.206,96.342,644.68,96.45,645.083,96.508z M645.566,96.555
		c-0.014,0-0.024-0.005-0.036-0.005c0.019,0.002,0.036,0.003,0.054,0.003C645.578,96.553,645.572,96.555,645.566,96.555z
		 M646.486,96.523c0.644-0.06,1.435-0.172,2.896-0.185C648.416,96.348,647.45,96.466,646.486,96.523z M656.586,88.318
		c0.611,0.229,1.213,0.455,1.824,0.679c-0.267-0.096-0.112-0.04,0.019,0.007c0.034,0.013,0.068,0.025,0.103,0.038
		C657.898,89.216,657.25,88.98,656.586,88.318z M662.004,88.8c1.596-0.071,3.223-0.091,4.699-0.041L662.004,88.8z M725.386,84.693
		c-0.138,0.011-0.248,0.019-0.314,0.022C725.146,84.71,725.259,84.703,725.386,84.693z M709.979,89.82
		c0.063-0.006,0.188-0.019,0.315-0.029C710.131,89.807,710.028,89.816,709.979,89.82z M710.669,89.754
		c-0.062-0.025-0.116-0.043-0.177-0.068c1.001-0.026,1.929-0.035,2.515-0.047L710.669,89.754z M725.594,84.766
		c-0.001,0-0.003,0-0.004,0c-4.992,0.82-19.675,4.047-22.125,2.088c0.7,0.56,8.673-1.063,9.232-1.115
		c-0.83,0.077-1.659,0.172-2.487,0.268c5.155-0.606,10.333-1.076,15.509-1.262C725.68,84.75,725.635,84.758,725.594,84.766z
		 M1011.024,68.219c-0.061,0.002-0.116,0-0.177,0.004l0.054-0.011c-0.009,0-0.019,0-0.027-0.001c0.119-0.01,0.237-0.029,0.354-0.066
		l-0.327,0.068C1010.942,68.215,1010.983,68.218,1011.024,68.219z M1013.736,68.134c0.468,0.173,0.943,0.313,1.434,0.421
		l-1.058-0.289l0.807,0.28c-0.386-0.155-0.78-0.282-1.183-0.384l0.376,0.104L1013.736,68.134z M1016.248,69.021
		c-0.287-0.119-0.556,0-0.782,0.326c0.004,0.002,0.009,0.004,0.013,0.006c-0.014,0-0.024,0.008-0.038,0.01l0.025-0.016
		c-0.374-0.296-0.743-0.521-1.106-0.699c0.651,0.063,1.266,0.175,1.772,0.33l-1.213-0.4c1.269,0.268,2.576,0.505,3.909,0.708
		c-0.898-0.081-1.797-0.177-2.696-0.308L1016.248,69.021z M1034.861,110.521c-0.024-0.013-0.041-0.022-0.065-0.035
		c0.025,0.016,0.046,0.012,0.069,0.021C1034.865,110.511,1034.859,110.52,1034.861,110.521c0.005-0.008,0.004-0.006,0.008-0.014
		h0.001C1034.867,110.512,1034.864,110.518,1034.861,110.521z M1035.762,69.457c3.301-0.525,6.469-1.438,9.327-2.854
		C1042.336,68.902,1039.225,69.846,1035.762,69.457z M1054.595,67.822c-0.095,0.009-0.183,0.035-0.27,0.061l0.016-0.013
		c-0.028,0.01-0.057,0.019-0.085,0.029c-0.007,0.002-0.014,0.004-0.02,0.006c-2.988,1.085-6.063,1.48-9.218,1.178
		c3.692-0.041,7.094-0.474,10.341-1.732l-1.021,0.519L1054.595,67.822z M1068.832,96.577c-0.021,0-0.039-0.001-0.061-0.001
		c-0.043-0.014-0.082-0.035-0.125-0.051C1068.711,96.547,1068.771,96.561,1068.832,96.577z M1067.738,102.952
		c0.597,0.205,1.15,0.333,1.714,0.415C1068.863,103.479,1068.291,103.35,1067.738,102.952z M1080.77,95.83
		c0.021-0.014,0.038-0.012,0.03,0.046C1080.802,95.859,1080.783,95.846,1080.77,95.83z M1083.679,97.041
		c-0.024-0.001-0.051-0.002-0.077-0.003c0.009,0,0.018-0.001,0.026-0.002C1083.648,97.038,1083.655,97.04,1083.679,97.041
		c0.022-0.004,0.046-0.009,0.068-0.014h0.001C1083.723,97.033,1083.706,97.036,1083.679,97.041z M1121.658,68.801
		c-3.309,0.46,5.052,0.414,0.83-0.003c5.276,0.461,10.555,0.976,15.828,1.562c-10.421-1.156-19.065-1.227-29.388,0.239
		C1113.256,69.979,1117.451,69.316,1121.658,68.801z M1108.168,72.432c0.001,0,0.002,0.002,0.002,0.002
		c-0.003,0.056-0.016,0.26,0.001,0c1.002,0.627,0.114,0.883-2.667,0.767c-0.979-0.062-1.954-0.14-2.934-0.196
		C1106.049,72.932,1108.134,72.77,1108.168,72.432z M1134.375,106.016c5.024,1.596,7.545,2.271,12.639,1.467
		c0.095-0.008,0.188-0.015,0.302-0.021C1142.716,108.849,1138.404,108.366,1134.375,106.016z M1147.334,107.456
		c0.05-0.013,0.012-0.016-0.092-0.011c0.438-0.071,0.893-0.15,1.373-0.244C1148.187,107.284,1147.763,107.375,1147.334,107.456z
		 M1150.574,100.014c-15.906,3.723-37.678-1.547-54.354-2.357c17.498,0.852,39.037,6.007,55.802,2.001
		C1151.535,99.773,1151.063,99.9,1150.574,100.014z M1162.533,109.855c-1.189,0.791-3.514,0.996-5.266,1.072
		c1.79-0.085,4.057-0.326,5.376-1.134C1162.609,109.814,1162.566,109.832,1162.533,109.855z M1166.28,113.971
		c-0.006-0.002-0.011-0.003-0.019-0.005c0.037,0.001,0.069,0.002,0.104,0.003C1166.337,113.973,1166.308,113.967,1166.28,113.971z
		 M1171.913,102.217c-3.254-0.55-6.496-0.943-9.776-1.363c3.153-0.194,6.354,0.022,9.957,1.317
		C1172.033,102.186,1171.974,102.202,1171.913,102.217z M1178.294,80.475c-14.497-2.543-29.078-4.555-43.714-6.072
		c-9.071-1.73-17.866-3.286-25.751-3.789c0.003,0,0.006-0.001,0.009-0.001c25.859,1.649,51.627,4.715,77.105,9.446
		c0.685-0.059,1.363-0.143,2.043-0.25C1184.904,80.273,1181.658,80.473,1178.294,80.475z M1177.631,77.547
		c-0.15-0.057-0.307-0.1-0.457-0.158c0.014-0.688,11.682,1.082,15.443,1.51C1187.855,79.029,1182.794,78.458,1177.631,77.547z
		 M1208.683,111.664c-0.086-0.012-0.149-0.021-0.227-0.031c0.063,0.01,0.112,0.016,0.151,0.021c-2.524-0.354-4.969-0.67-7.354-1.036
		c7.853,0.965,15.877,0.563,24.043,0.097c-11.367-1.412-22.612-3.418-33.919-5.206c11.044-0.475,23.485,3.91,33.919,5.206
		L1208.683,111.664z M1232.561,86.458c4.277-0.135,6.885-0.394,9.737-0.362C1239.279,86.24,1235.97,86.35,1232.561,86.458
		c4.886,0.918,7.912,0.899,11.866,0.365C1240.398,88.068,1236.902,87.273,1232.561,86.458z M1241.914,86.116
		c-0.206,0.011-0.361,0.019-0.464,0.022C1241.574,86.133,1241.741,86.125,1241.914,86.116z M1287.174,85.738
		c-0.063,0.001-0.128-0.01-0.19-0.012c-0.519-0.006-1.034-0.002-1.553-0.002c-0.034-0.004-0.067-0.012-0.102-0.013
		c0.135,0.001,0.323-0.157,0.588-0.157c0.01,0,0.021,0,0.03,0h0.002c-0.034,0.001-0.065,0.094-0.098,0.096
		c0.377-0.004,0.756,0.061,1.132,0.076c0.036,0,0.073,0,0.111,0l-1.118-0.168l1.197,0.168c-0.024,0-0.053,0-0.079,0L1287.174,85.738
		z M1325.32,73.577l0.529,0.006c-0.188-0.013-0.375-0.007-0.562,0.001L1325.32,73.577z M1293.984,111.707
		c1.309,0.025,2.632,0.043,3.951,0.063C1296.647,112.012,1295.332,112.001,1293.984,111.707z M1307.829,86.555
		c-0.251-0.039-0.486-0.059-0.707-0.065c0.223,0.007,0.46,0.026,0.714,0.065C1307.834,86.555,1307.832,86.555,1307.829,86.555z
		 M1318.905,116.018c-0.487-0.052-0.977-0.101-1.462-0.149c0.562,0.056,1.152,0.087,1.732,0.129
		C1318.954,116.004,1318.837,116.011,1318.905,116.018c0.15-0.002,0.305-0.004,0.457-0.006c0.006,0,0.011,0.002,0.017,0.002
		C1319.225,116.016,1319.074,116.016,1318.905,116.018z M1317.527,115.852c7.404-1.308,18.59-1.354,26.257-0.511
		C1335.175,114.393,1326.179,115.779,1317.527,115.852z M1385.176,129.889l-3.247,0.061c1.2-0.01,2.401-0.039,3.598-0.086
		L1385.176,129.889z M1720.483,74.341c0.236-0.071,0.351-0.104,0.385-0.114C1720.819,74.241,1720.663,74.288,1720.483,74.341z
		 M1708.571,76.261c-3.335,0.513-6.677,1.021-10.019,1.546c10.023-1.787,20.056-3.541,30.033-5.586
		c-0.25,0.059-0.5,0.113-0.75,0.174L1708.571,76.261l7.048-1.077c-16.143,2.688-32.541,8.056-48.702,9.269
		C1680.65,83.364,1695.094,78.882,1708.571,76.261z M1633.745,93.414c-0.327,0.055-0.622,0.107-0.897,0.156
		c-0.037,0.006-0.076,0.008-0.112,0.013C1633.072,93.525,1633.408,93.473,1633.745,93.414z M1449.281,88.38
		c-4.81-0.397-9.649-0.792-14.518-1.183c5.122,0.412,10.252,0.71,15.387,0.938C1448.846,88.21,1448.261,88.296,1449.281,88.38
		c1.401-0.044,2.633-0.085,3.72-0.122c0.14,0.006,0.278,0.01,0.417,0.014C1452.039,88.305,1450.659,88.336,1449.281,88.38z
		 M1571.241,89.473c-2.401-0.156-11.868-0.773,0.021,0c16.83,1.102,31.57,1.438,48.135-0.043
		c-40.688,3.799-82.255,0.594-123.576-0.771C1520.971,88.419,1546.168,87.838,1571.241,89.473z M1602.877,91.683
		c0.042,0.002,0.083,0.005,0.121,0.007c-0.038-0.002-0.088-0.004-0.17-0.008C1602.845,91.683,1602.86,91.683,1602.877,91.683z
		 M1519.979,93.954c3.689,0.489,7.524,0.871,11.414,1.153C1527.557,95.077,1523.752,94.698,1519.979,93.954z M1538.599,98.08
		l-1.639,0.24C1537.529,98.197,1538.066,98.129,1538.599,98.08z M1538.549,98.376c-0.052-0.002-0.103-0.004-0.154-0.005
		c0.021-0.001,0.041-0.002,0.062-0.002C1538.472,98.372,1538.498,98.374,1538.549,98.376c0.042-0.005,0.073-0.008,0.107-0.013
		c0.002,0,0.004,0,0.006,0C1538.624,98.368,1538.587,98.372,1538.549,98.376z M1546.393,98.662
		c-0.707-0.031-1.416-0.057-2.125-0.084c0.604-0.135,1.186-0.215,1.758-0.271c-0.585,0.092-1.172,0.188-1.758,0.271
		c1.004,0.04,1.995,0.042,2.985-0.008L1546.393,98.662z M1557.302,95.684c2.085-0.39,4.173-0.563,6.263-0.572
		C1561.445,95.293,1559.353,95.482,1557.302,95.684z M1567.407,95.289c-1.064-0.064-2.13-0.121-3.195-0.18
		C1565.276,95.127,1566.341,95.172,1567.407,95.289z M1572.955,95.848c-0.004,0-0.007,0.001-0.013,0.002
		c-2.931,0.502-5.646,0.43-8.604,0.243c0.109,0.007,0.214,0.011,0.316,0.013c3.18,0.182,6.031,0.059,9.197-0.389
		C1573.55,95.759,1573.254,95.805,1572.955,95.848z M1575.957,95.411c0.004-0.001,0.007-0.001,0.011-0.001
		c0.022,0.002,0.03,0.004,0.061,0.006h-0.001C1576.004,95.414,1575.98,95.412,1575.957,95.411z M1576.034,95.415
		c0.037-0.006,0.056-0.011,0.073-0.015c0.019-0.002,0.039-0.002,0.059-0.004C1576.122,95.402,1576.078,95.408,1576.034,95.415z
		 M1587.636,100.889c0.007,0,0.013-0.002,0.021-0.002c0.025,0.002,0.065,0.004,0.135,0.006c-0.001,0-0.001,0-0.001,0
		C1587.739,100.891,1587.686,100.891,1587.636,100.889z M1587.792,100.893c0.044-0.004-0.01-0.009-0.071-0.011
		c0.155-0.01,0.313-0.01,0.465-0.03C1588.055,100.867,1587.921,100.879,1587.792,100.893z M1589.563,93.042
		c-0.027-0.006-0.063-0.015-0.091-0.021c2.312,0.479,4.827-0.006,7.149-0.293C1594.369,93.006,1591.805,93.536,1589.563,93.042z
		 M1601.145,98.939c0.927,0.055,1.853,0.104,2.775,0.151c0.057,0.005,0.173,0.011,0.391,0.023
		C1603.265,99.261,1602.209,99.208,1601.145,98.939z M1603.031,91.69c0.087,0.004-0.061-0.003-0.149-0.008
		c0.556,0.023,1.11,0.038,1.668,0.042c-0.098,0.019-0.131,0.03-0.032,0.035c0.117-0.015,0.207-0.023,0.307-0.037
		c0.002,0,0.004,0,0.006,0c-0.104,0.014-0.207,0.024-0.313,0.037C1604.021,91.738,1603.527,91.714,1603.031,91.69z M1604.635,99.07
		C1605.044,99.008,1605.788,98.896,1604.635,99.07L1604.635,99.07z M1607.798,91.891c1.582-0.242,3.145-0.564,4.692-0.955
		c0.382-0.084,0.763-0.18,1.143-0.276c0.396-0.052,0.792-0.083,1.188-0.132c-1.695,0.273-3.377,0.625-5.041,1.063
		c3.503-0.541,7-1.097,10.495-1.661c2.645-0.428-7.914,1.728-11.739,1.944c0.414-0.095,0.829-0.187,1.243-0.283
		C1609.12,91.693,1608.457,91.789,1607.798,91.891z M1615.414,96.954c0.505,0.053,0.893,0.106,1.152,0.159
		C1616.178,97.092,1615.795,97.042,1615.414,96.954z M1617.668,97.081c-0.264,0.03-0.525,0.024-0.789,0.022
		c0.295-0.006,0.591-0.021,0.885-0.039C1617.734,97.07,1617.701,97.076,1617.668,97.081z M1630.729,93.457
		c-4.285,0.679-8.551,1.354-12.763,2.027C1622.177,94.295,1626.432,93.625,1630.729,93.457z M1631.777,93.744
		c-0.574,0.094-1.149,0.181-1.724,0.3c-0.243,0.036-0.477,0.063-0.72,0.099C1630.148,94.014,1630.963,93.879,1631.777,93.744z
		 M1637.064,93.877c0.267-0.047,0.655-0.116-0.037,0.006c-4.39,0.777-8.955,0.993-13.397,1.182
		c5.661-0.174,11.216-0.836,16.784-1.76c0.006,0,0.02-0.002,0.024-0.003C1639.307,93.49,1638.178,93.68,1637.064,93.877z
		 M1641.971,92.17c0.251-0.041,0.498-0.084,0.749-0.125c0.011-0.001,0.021-0.002,0.029-0.003
		C1642.488,92.085,1642.232,92.128,1641.971,92.17z M1643.027,98.924c-0.049,0.006-0.107,0.012-0.154,0.02
		c0.363-0.06,0.777-0.17,1.15-0.144C1643.687,98.82,1643.357,98.866,1643.027,98.924z M1659.277,94.066l-4.538,0.602
		c2.743-0.395,5.464-0.848,8.188-1.322C1661.709,93.579,1660.49,93.809,1659.277,94.066z M1651.086,95.15
		c1.098-0.229,2.189-0.517,3.283-0.814c4.26-0.654,8.576-1.544,12.88-1.986C1661.834,93.208,1656.443,94.033,1651.086,95.15z
		 M1655.377,94.059c1.928-0.535,3.861-1.059,5.819-1.354L1655.377,94.059z M1656.355,89.695c-0.945,0.176-1.905,0.349-2.873,0.521
		c-1.438,0.247-2.883,0.494-4.326,0.743c1.177-0.294,2.349-0.64,3.516-1.035c-4.736,0.783-9.475,1.554-14.216,2.308
		c9.3-1.486,19.61-4.41,29.056-4.873c-2.424,0.306-0.688,0.093-0.117,0.019c-4.938,0.624-9.854,1.501-14.723,2.546
		c5.115-0.844,10.182-1.708,15.161-2.582C1664.127,87.992,1660.26,88.866,1656.355,89.695z M1690.849,86.53
		c-0.007,0.011-0.014,0.024-0.021,0.024c0.003,0,0.007,0,0.01,0c0.009,0,0.017-0.016,0.024-0.031
		c-0.002,0.002-0.006,0.003-0.009,0.005c0.036-0.058,0.07-0.224,0.114-0.232c-0.035,0.007-0.068,0.165-0.104,0.228
		c0.292-0.121,0.534-0.237,0.708-0.349c0.068-0.016,0.14-0.038,0.21-0.042c-2.666,2.532-15.305,4.383-22.053,5.059
		C1673.687,90.453,1686.986,88.125,1690.849,86.53z M1690.837,92.295c-4.485,1.196-8.123,1.751-12.144,2.018
		C1682.813,93.98,1686.861,93.313,1690.837,92.295c-4.604,0.734-9.229,1.434-13.87,2.112c2.456-0.359,11.729-2.81,14.591-2.357
		C1691.322,92.044,1691.08,92.12,1690.837,92.295z M1689.258,91.167c0,0.133,0.445,0.299,0.873,0.433
		C1689.54,91.648,1689.248,91.503,1689.258,91.167z M1691.635,89.721l-0.113-0.003c0.06,0.003,0.115-0.007,0.176-0.01
		C1691.676,89.712,1691.657,89.716,1691.635,89.721z M1676.972,90.917c5.067-0.845,10.179-1.663,15.298-2.466
		C1687.371,89.218,1681.998,90.495,1676.972,90.917z M1692.344,89.585l-0.055-0.021c0.025,0.009,0.049,0.009,0.072,0.018
		C1692.355,89.583,1692.351,89.584,1692.344,89.585z M1696.078,90.902c-0.275-0.053-0.589-0.112-0.959-0.186
		c0.438,0.086,0.915,0.114,1.4,0.109C1696.373,90.854,1696.222,90.873,1696.078,90.902z M1699.151,91.016
		c-0.692,0.207-1.388,0.238-2.077,0.072c0.788-0.213,1.699-0.443,2.592-0.544c-0.57,0.077-1.137,0.229-1.658,0.433l-0.934,0.111
		C1697.73,91.205,1698.441,91.139,1699.151,91.016z M1694.027,90.759c1.959-0.706,3.883-0.854,5.771-0.478
		C1697.875,90.441,1695.949,90.598,1694.027,90.759z M1703.496,89.473c-0.094-0.023-0.188-0.053-0.279-0.078
		c0.104,0.039,0.208,0.047,0.313,0.063C1703.493,89.459,1703.458,89.462,1703.496,89.473c0.046-0.002,0.056-0.005,0.066-0.007
		c0.005,0,0.01,0.002,0.014,0.002C1703.549,89.471,1703.523,89.471,1703.496,89.473z M1705.467,89.256
		c-0.004-0.002-0.004-0.003-0.015-0.005c-0.011,0.001-0.021,0.003-0.03,0.004c-0.001,0-0.002,0-0.002,0
		c0.012-0.001,0.02-0.002,0.032-0.004c0.013,0.002,0.022,0.003,0.033,0.005C1705.479,89.256,1705.473,89.256,1705.467,89.256z
		 M1799.359,68.813c-1.313,0.235-2.241,0.342-3.203,0.713C1797.128,69.008,1798.191,68.759,1799.359,68.813z M1794.555,73.852
		c-0.354,0.062-0.713,0.125-1.066,0.186C1793.833,73.941,1794.188,73.871,1794.555,73.852z M1792.873,74.23
		c0.058-0.023,0.119-0.035,0.178-0.056c-0.122,0.046-0.247,0.083-0.365,0.138L1792.873,74.23z M1744.284,79.198
		c12.267-2.359,24.555-4.606,36.855-6.759c-14.518,2.541-29.979,7.525-44.688,8.295
		C1738.813,80.609,1741.967,79.706,1744.284,79.198z M1739.721,82.979c-1.404,0.227-2.806,0.451-4.211,0.679
		C1736.904,83.356,1738.309,83.132,1739.721,82.979z M1736.354,83.898c0.411,0.018-0.249-0.087-0.005-0.001
		c-0.252-0.087-0.531-0.166-0.846-0.237c3.084,0.686,4.338-0.142,8.215-0.916c-1.255,0.072-2.512,0.141-3.767,0.215
		c1.25-0.127,2.504-0.204,3.767-0.215C1741.309,83.723,1738.853,84.107,1736.354,83.898z M1746.646,84.526
		c1.744-0.352-0.593-0.048-0.006,0.001h-0.001c-0.593-0.049-1.186-0.1-1.786-0.145c3.212-1.261,6.655-2.021,10.102-2.236
		c-0.995,0.199-1.395,0.281-1.469,0.299c-2.896,0.565-5.777,1.199-8.633,1.938c3.791,0.285,7.068-1.002,10.557-2.267
		C1752.624,83.383,1749.704,84.186,1746.646,84.526z M1775.951,80.859C1778.287,80.607,1775.654,81.252,1775.951,80.859
		L1775.951,80.859z M1777.266,79.864c-0.018-0.003-0.037-0.001-0.057-0.005c2.176-1.377,4.126-2.135,6.104-2.666
		c-2.168,0.615-4.209,1.49-6.104,2.666c0.02,0.002,0.044,0,0.064,0.002C1777.271,79.861,1777.268,79.863,1777.266,79.864z
		 M1777.719,79.9c0.043-0.016,0.086-0.03,0.129-0.045c1.581-0.113,3.987-1,6.239-1.929
		C1782.053,79.404,1779.93,80.063,1777.719,79.9z M1785.632,82.813c-0.229,0.051-0.457,0.1-0.686,0.149
		c0.229-0.044,0.453-0.106,0.68-0.16C1785.604,82.814,1785.602,82.82,1785.632,82.813c0.026-0.011,0.044-0.019,0.068-0.028
		c0.002,0,0.005-0.001,0.008-0.002C1785.683,82.793,1785.656,82.803,1785.632,82.813z M1795.465,77.795
		c0.396-0.212,0.633-0.333,0.769-0.396C1795.979,77.533,1795.719,77.658,1795.465,77.795z M1785.667,77.264
		c0.027-0.013,0.055-0.023,0.082-0.035c4.531-1.369,9.093-2.369,13.664-3.571C1794.817,74.883,1790.218,75.956,1785.667,77.264z
		 M1805.021,65.54c0.003-0.001,0.006-0.002,0.009-0.002c0,0,0.004,0,0.005,0C1805.031,65.538,1805.026,65.539,1805.021,65.54z
		 M1820.305,72.048c0.22-0.065,9.588-2.713,13.295-3.669c-4.063,0.907-7.649,1.63-11.395,2.951
		c4.333-1.588,8.842-2.874,13.392-3.515c-0.46,0.084-0.52,0.149-0.505,0.228l1.622-0.383c-5.928,1.49-12.198,3.574-18.313,5.004
		C1819.056,72.529,1819.689,72.324,1820.305,72.048z M1823.259,72.584c-0.787,0.234-1.563,0.48-2.343,0.723
		C1821.413,73.145,1822.172,72.909,1823.259,72.584z M1826.519,80.77c0.827-0.36,1.592-0.696,2.343-1.004
		C1828.08,80.1,1827.293,80.432,1826.519,80.77z M1831.381,78.877c0.636-0.184,1.293-0.339,2.001-0.457L1831.381,78.877z
		 M1809.296,80.511c0.042-0.013,0.07-0.022,0.097-0.032C1809.343,80.496,1809.296,80.511,1809.296,80.511
		c8.257-1.952,16.565-3.782,24.796-5.864C1825.946,77.002,1817.498,78.572,1809.296,80.511z M1905.645,81.842
		c-0.139,0.014-0.252,0.025-0.322,0.033c0.886-0.329,1.232-0.753,0.912-1.273c0.224-0.029,0.438-0.052,0.656-0.076
		c-0.188,0.022-0.375,0.054-0.563,0.076C1906.697,81.068,1906.466,81.48,1905.645,81.842z"/>
	<path fill="#353535" d="M1718.517,72.844c-16.138,3.035-32.297,5.94-48.384,9.223c-0.629,0.127-1.259,0.328-1.887,0.459
		c-0.927,0.19-1.852,0.482-2.776,0.758c9.933-1.785,19.858-3.565,29.786-5.34C1703.032,76.29,1710.798,74.535,1718.517,72.844z"/>
	<path fill="#353535" d="M712.697,85.738c4.103-0.373,8.195-0.742,12.298-0.94C720.894,84.994,716.801,85.366,712.697,85.738z"/>
	<path fill="#353535" d="M1660.46,84.107c0.048-0.008,0.096-0.017,0.144-0.024c0.013-0.004,0.022-0.011,0.033-0.015
		C1660.578,84.082,1660.52,84.094,1660.46,84.107z"/>
	<path fill="#353535" d="M724.995,84.798c0.198-0.009,0.396-0.023,0.594-0.032c0,0,0.001,0,0.001,0
		C725.392,84.774,725.194,84.789,724.995,84.798z"/>
	<path fill="#353535" d="M220.318,96.268c-0.285-0.061-0.548-0.185-0.782-0.396c-0.161-0.042-3.569-0.778-7.208-1.414
		C216.051,95.193,219.666,96.084,220.318,96.268z"/>
	<path fill="#353535" d="M213.137,98.716c-5.061-1.631-10.229-2.778-15.387-4.063C202.758,96.068,207.815,97.423,213.137,98.716z"/>
	<path fill="#353535" d="M193.778,93.628c3.75,1.017,1.094,0.296,0.034,0.009c1.311,0.355,2.624,0.688,3.938,1.016
		c-6.329-1.786-12.578-3.672-19.16-5.666c5.017,1.602,10.053,3.142,15.107,4.62C193.725,93.613,193.746,93.619,193.778,93.628z"/>
	<path fill="#353535" d="M193.767,93.627c-0.023-0.007-0.046-0.014-0.07-0.021C193.273,93.491,193.411,93.527,193.767,93.627z"/>
	<path fill="#353535" d="M1835.092,68.043C1831.441,68.882,1835.094,68.093,1835.092,68.043L1835.092,68.043z"/>
	<path fill="#353535" d="M1833.6,68.379c0.492-0.109,0.984-0.219,1.492-0.336C1835.091,68.008,1834.515,68.143,1833.6,68.379z"/>
	<path fill="#353535" d="M22.751,65.411l-0.433-0.095L21.7,65.34c-0.453-0.008-0.907,0.004-1.366,0.056l4.45,0.462
		C24.112,65.638,23.435,65.494,22.751,65.411z"/>
	<path fill="#353535" d="M8.389,67.726c0.04,0.006,0.071,0.01,0.115,0.015C8.504,67.741,8.458,67.735,8.389,67.726z"/>
	<path fill="#353535" d="M1504.82,55.813c0.315-0.012,0.561-0.022,0.682-0.027C1505.261,55.795,1505.034,55.805,1504.82,55.813z"/>
	<path fill="#353535" d="M1525.953,58.975c-0.313-0.028-0.692-0.062-1.159-0.104C1525.178,58.905,1525.58,58.942,1525.953,58.975z"
		/>
	<path fill="#353535" d="M1145.064,67.252l0.047,0.01l0.098-0.253c0.314-0.023,0.631,0.51,0.945-0.402
		c0.003,0.067,0.006,0.175,0.01,0.174c0.003,0.001,0.007,0.117,0.011,0.118l0.029,0.047c0.338-0.046,0.675-0.128,1.009-0.314
		c-1.678-0.226-3.307-0.452-5.07-0.734c0.602,0.212,1.431,0.38,2.047,0.57c0.427,0.28,0.851,0.453,1.271,0.521l-1.765-0.049
		C1144.151,67.164,1144.608,67.261,1145.064,67.252z"/>
	<path fill="#353535" d="M1148.9,41.45C1149.167,41.442,1149.262,41.438,1148.9,41.45L1148.9,41.45z"/>
	<path fill="#353535" d="M1524.344,58.83c-0.054-0.005-0.109-0.01-0.159-0.015C1524.238,58.82,1524.292,58.825,1524.344,58.83z"/>
	<path fill="#353535" d="M1524.185,58.815c-0.003,0-0.006,0-0.008,0C1524.179,58.815,1524.182,58.815,1524.185,58.815z"/>
	<path fill="#353535" d="M1524.177,58.815c-0.182-0.017-0.338-0.031-0.454-0.041C1523.882,58.789,1524.03,58.802,1524.177,58.815z"
		/>
	<path fill="#353535" d="M1524.344,58.83c0.142,0.013,0.291,0.026,0.45,0.04C1524.653,58.857,1524.501,58.844,1524.344,58.83z"/>
	<path fill="#353535" d="M7.574,67.625c0.091,0.011,0.232,0.029,0.381,0.048C7.771,67.649,7.647,67.633,7.574,67.625z"/>
	<path fill="#353535" d="M7.574,67.625C7.439,67.607,7.465,67.611,7.574,67.625L7.574,67.625z"/>
	<path fill="#353535" d="M388.993,85.945l-0.874-0.182l-1.057-0.048c-0.661-0.053-1.323-0.087-1.99-0.089l6.806,0.92
		C390.924,86.289,389.961,86.096,388.993,85.945z"/>
	<path fill="#353535" d="M1202.591,52.166C1202.82,52.176,1202.771,52.173,1202.591,52.166L1202.591,52.166z"/>
	<path fill="#353535" d="M1202.241,52.151c0.134,0.005,0.258,0.011,0.35,0.015C1202.511,52.162,1202.393,52.157,1202.241,52.151z"/>
	<path fill="#353535" d="M1503.001,55.887c-0.271,0.01-0.524,0.021-0.748,0.03C1502.457,55.909,1502.702,55.899,1503.001,55.887z"/>
	<path fill="#353535" d="M1201.255,52.108c0.076,0.003,0.132,0.006,0.201,0.009C1201.337,52.111,1201.255,52.108,1201.255,52.108z"
		/>
	<path fill="#353535" d="M1501.776,55.936c0.118-0.005,0.274-0.011,0.477-0.02C1502.067,55.924,1501.904,55.931,1501.776,55.936z"/>
	<path fill="#353535" d="M1206.292,54.427c0.249,0.105,0.513,0.2,0.748,0.316c1.071-0.101,2.103-0.37,3.09-0.81
		c-2.672-0.931-5.499-1.679-8.875-1.825l1.038,0.39c-3.601-0.069-6.254-0.78-9.414-0.773
		C1197.104,52.396,1201.872,54.339,1206.292,54.427z"/>
	<path fill="#353535" d="M1148.346,41.468c0.242-0.008,0.434-0.014,0.557-0.018C1148.75,41.455,1148.549,41.461,1148.346,41.468z"/>
	<path fill="#353535" d="M1536.8,79.932c1.212,0.032,2.424,0.077,3.636,0.116c2.809,0.111,5.606,0.201,8.389,0.306
		c0.979,0.041,1.956,0.076,2.934,0.119c-7.943-1.462-15.926-2.814-24.471-3.895c5.328,1.063,13.857,2.121,19.148,3.303
		c-10.896-0.707-21.642-2.568-32.564-2.855c7.229,1.748,14.729,2.438,22.229,2.826C1536.332,79.877,1536.567,79.904,1536.8,79.932z"
		/>
	<path fill="#353535" d="M1618.739,90.177c0.038-0.006,0.179-0.028,0.458-0.073C1618.979,90.139,1618.795,90.168,1618.739,90.177z"
		/>
	<path fill="#353535" d="M1619.66,90.029c0.217-0.035,0.41-0.066,0.518-0.084C1619.985,89.977,1619.811,90.004,1619.66,90.029z"/>
	<path fill="#353535" d="M1896.979,76.896c-0.003,0.049,0.006,0.039,0.012,0.019c0.174,1.328,25.117-3.296,24.773-3.22
		c-0.925,0.146-24.317,2.804-24.766,3.191C1897,76.861,1897,76.842,1896.979,76.896z"/>
	<path fill="#353535" d="M1546.393,98.662c0,0-0.042-0.002-0.095-0.004C1546.33,98.659,1546.352,98.66,1546.393,98.662z"/>
	<path fill="#353535" d="M1746.218,67.387c-9.123,1.489-18.378,3.421-27.702,5.464C1727.764,71.111,1737.004,69.329,1746.218,67.387
		z"/>
	<path fill="#353535" d="M1441.953,65.721c-6.281,0.39-12.551,0.791-18.762,1.401c1.164,0.081,2.412,0.206,3.711,0.343
		C1431.895,67.074,1436.919,66.435,1441.953,65.721z"/>
	<path fill="#353535" d="M1441.953,65.721c12.616-0.784,25.272-1.526,37.58-3.844C1467.184,61.712,1454.538,63.937,1441.953,65.721z
		"/>
	<path fill="#353535" d="M1771.914,68.552c-5.766-1.699-14.503,1.247-22.938,4.117C1761.32,70.502,1771.923,68.618,1771.914,68.552z
		"/>
	<path fill="#353535" d="M1892.848,80.663c0.121-0.019,0.225-0.033,0.302-0.045C1893.039,80.634,1892.923,80.652,1892.848,80.663z"
		/>
	<path fill="#353535" d="M214.147,86.24c0.356,0.248,0.676,0.43,0.979,0.583C214.833,86.62,214.514,86.423,214.147,86.24z"/>
	<path fill="#353535" d="M639.803,85.896c-0.906-0.063-1.824-0.066-2.758,0.008C638.007,85.893,638.918,85.893,639.803,85.896z"/>
	<path fill="#353535" d="M718.652,75.007c0.083,0.002,0.159,0.007,0.241,0.009C719.044,74.926,718.985,74.912,718.652,75.007z"/>
	<path fill="#353535" d="M1195.105,76.969c1.077,0.594,2.285,1.059,3.606,1.405c4.426-0.36,13.382-1.394,5.316-0.595
		C1201.54,76.801,1197.669,78.15,1195.105,76.969z"/>
	<path fill="#353535" d="M1888.221,56.715c-0.632,0.245-1.281,0.482-1.918,0.725C1887.454,57.076,1888.158,56.818,1888.221,56.715z"
		/>
	<path fill="#353535" d="M1857.533,59.591c-1.467,0.322-1.59,0.431-1.563,0.55L1857.533,59.591z"/>
	<path fill="#353535" d="M1748.152,69.105C1738.955,72.975,1758.009,67.25,1748.152,69.105L1748.152,69.105z"/>
	<path fill="#353535" d="M1861.746,73.564c0.354-0.334,0.696-0.664,1.001-0.981c-7.948,2.656-15.854,5.524-21.895,8.956
		c4.535-1.729,7.548-3.203,11.938-4.795c0.001,0.005,0.004,0.012,0.005,0.018c-0.099,0.113-0.179,0.247-0.219,0.424
		C1856.256,76.938,1859.313,75.73,1861.746,73.564z"/>
	<path fill="#353535" d="M1881.055,65.808c0.001,0.005,0.004,0.01,0.004,0.015c-0.16,0.14-0.312,0.3-0.431,0.502
		c4.479-1.801,10.226-3.226,14.591-5.796c0.166-0.063,0.332-0.128,0.497-0.192c0.606-0.446,1.188-0.888,1.71-1.307
		c-12.854,4.937-25.857,9.496-36.373,13.832C1868.706,70.473,1873.811,68.387,1881.055,65.808z"/>
	<path fill="#353535" d="M1899.325,57.052c-1.242,0.277-1.341,0.381-1.311,0.499L1899.325,57.052z"/>
	<path fill="#353535" d="M365.832,98.326l-2.171-0.309C365.588,98.477,365.798,98.443,365.832,98.326z"/>
	<polygon fill="#353535" points="512.987,89.968 512.217,90.064 516.059,90.289 	"/>
	<polygon fill="#353535" points="379.73,85.6 378.202,85.573 391.043,87.488 	"/>
	<polygon fill="#353535" points="385.072,85.627 382.028,85.587 395.591,88.016 	"/>
	<path fill="#353535" d="M421.637,85.926c0.21,0.034,0.39,0.063,0.523,0.084C421.98,85.982,421.801,85.952,421.637,85.926z"/>
	<path fill="#353535" d="M422.407,86.05c0,0-0.095-0.016-0.248-0.04C422.244,86.023,422.319,86.037,422.407,86.05z"/>
	<path fill="#353535" d="M393.646,83.166c9.567,1.188,19.146,2.148,28.761,2.885C414.1,84.718,404.246,84.034,393.646,83.166z"/>
	<path fill="#353535" d="M419.343,85.559c0.266,0.043,0.625,0.101,1.093,0.176C420.038,85.67,419.652,85.607,419.343,85.559z"/>
	<path fill="#353535" d="M215.73,75.909c0.483,0.01,1.676-0.103,2.272-0.175c8.438-0.588,16.853,0.08,25.282,0.64
		c-0.92-0.118-1.861-0.235-2.816-0.353c-0.446-0.054-0.9-0.105-1.352-0.16c-0.517-0.061-1.031-0.121-1.556-0.182
		c-0.512-0.058-1.028-0.111-1.544-0.168c-0.511-0.055-1.021-0.109-1.537-0.16c-0.458-0.047-0.917-0.091-1.378-0.135
		c-0.667-0.063-1.336-0.123-2.01-0.181c-0.285-0.024-0.569-0.048-0.854-0.07c-11.158-0.905-23.155-0.887-32.805,2.374
		c0-0.007-0.084,0.018-0.313,0.098c-0.311,0.133-0.464,0.201-0.519,0.229c-1.521,0.659-3.026,1.348-4.506,2.075
		c8.35-2.043,16.797-3.043,26.729-3.734C217.794,75.964,216.763,75.932,215.73,75.909z"/>
	<path fill="#353535" d="M356.874,84.62c0.758,0.3,1.544,0.571,2.342,0.825c3.27,1.168,6.888,1.822,10.417,1.894l-9.006-1.944
		l6.049,0.873l-9.928-2c-0.119-0.084-0.315-0.123-0.593-0.119c0.229,0.115,0.476,0.218,0.713,0.328
		C356.875,84.521,356.885,84.564,356.874,84.62z"/>
	<path fill="#353535" d="M389.327,90.066c-0.901-0.121-1.652-0.217-2.283-0.293c-9.602-1.217-19.247-2.041-28.784-3.711
		c-0.469,0.192-1.757,0.438-3.024,0.598l-2.417,0.16c11.89,1.324,23.791,2.771,35.756,3.214
		C388.821,90.047,389.073,90.059,389.327,90.066z"/>
	<path fill="#353535" d="M335.302,85.564c15.445,1.884,30.69,5.101,46.222,6.304c-1.325-0.313-2.655-0.606-3.987-0.888
		c-12.509-2.691-25.484-4.254-38.205-5.352c-3.856-0.434-7.707-0.883-11.542-1.395c11.167,2.646,22.491,4.752,34.602,6.75
		C354.861,89.367,342.74,87.42,335.302,85.564z"/>
	<path fill="#353535" d="M589.166,88.363l-6.869-1.139C584.495,88.116,586.822,88.507,589.166,88.363z"/>
	<polygon fill="#353535" points="102.445,73.684 101.945,73.7 104.319,74.314 	"/>
	<path fill="#353535" d="M16.867,65.79c0.065,0.008,0.112,0.014,0.171,0.022C16.937,65.799,16.867,65.79,16.867,65.79z"/>
	<path fill="#353535" d="M17.713,65.901c0.099,0.013,0.177,0.023,0.219,0.029C17.896,65.925,17.825,65.916,17.713,65.901z"/>
	<path fill="#353535" d="M16.867,65.79l-0.991,0.106c2.798,0.317,5.595,0.635,8.393,0.953C21.802,66.496,19.334,66.143,16.867,65.79
		z"/>
	<path fill="#353535" d="M20.333,65.396c0,0,0.044,0.011,0.112,0.026C20.406,65.413,20.376,65.406,20.333,65.396z"/>
	<path fill="#353535" d="M20.445,65.422c0.172,0.041,0.315,0.075,0.433,0.103C20.715,65.486,20.55,65.447,20.445,65.422z"/>
	<path fill="#353535" d="M20.878,65.525c0.162,0.039,0.318,0.076,0.407,0.097C21.215,65.605,21.082,65.573,20.878,65.525z"/>
	<path fill="#353535" d="M20.333,65.396l-1.977,0.192c2.97,0.47,5.924,0.981,8.863,1.531C24.937,66.525,22.643,65.943,20.333,65.396
		z"/>
	<path fill="#353535" d="M41.434,63.763c-4.657-0.808-9.943-1.165-15.58-1.38c6.267,0.72,12.539,1.398,18.815,2.034
		C42.304,63.846,41.42,63.708,41.434,63.763z"/>
	<path fill="#353535" d="M0.258,70.036c7.658-0.337,15.327-0.146,22.984-0.504c-0.792-0.089-1.395-0.146-1.87-0.183
		c-3.927-0.354-7.888-0.482-11.841-0.588c0.316-0.082,0.633-0.166,0.959-0.279c-1.974-0.314-3.956-0.611-5.947-0.882l3.96,0.141
		c-2.235-0.281-4.479-0.535-6.732-0.755c-0.067-0.016-0.146-0.024-0.236-0.025c0.352,0.298,0.683,0.535,1.003,0.728
		c0.528,0.384,1.083,0.692,1.666,0.92c-0.365-0.012-0.73-0.023-1.095-0.037C2.561,68.91,0.771,69.822,0.258,70.036z"/>
	<path fill="#353535" d="M5.75,72.93c-1.526-0.228-2.443-0.395-5.184-0.525c0.183,0.008,0.414,0.019,0.616,0.027
		c-0.152-0.008-0.369-0.017-0.625-0.028c-0.104-0.005-0.19-0.01-0.299-0.015C0.183,74.369,2.013,74.549,5.75,72.93z"/>
	<path fill="#353535" d="M15.904,71.907c-0.242,0.001-0.499,0.002-0.724,0.003C15.37,71.91,15.608,71.908,15.904,71.907z"/>
	<path fill="#353535" d="M16.777,71.902l1.323-0.014c-4.527-1.117-10.842-1.367-17.842-1.421
		C3.885,71.605,11.719,71.925,16.777,71.902z"/>
	<path fill="#353535" d="M146.545,77.117c1.206,1.025,2.628,1.613,4.172,1.681L146.545,77.117z"/>
	<path fill="#353535" d="M1128.556,43.075c0,0,0.222-0.021,0.324-0.031C1128.828,43.048,1128.736,43.057,1128.556,43.075z"/>
	<path fill="#353535" d="M1129.193,43.154l-0.64-0.079c3.989-0.384,9.031-1.489,11.403-3.075c-2.43,0.82-5.182,1.077-7.642,1.755
		c1.229-0.34-2.52,0.688-0.054,0.015c-2.557,0.7-4.953,1.49-7.176,2.341C1126.434,43.781,1127.79,43.454,1129.193,43.154z"/>
	<path fill="#353535" d="M1138.916,42.152c-0.943,0.185-1.921,0.451-2.787,0.684c1.485-0.32,2.983-0.521,4.45-0.899
		c-0.33-0.175-0.695-0.139-1.062,0.068C1139.318,42.053,1139.117,42.103,1138.916,42.152z"/>
	<path fill="#353535" d="M1150.573,41.968l-0.491,0.186c-0.691,0.248-1.378,0.505-2.063,0.777c3.418-1.047,7.056-1.206,10.58-0.479
		l-0.479,0.199c2.313,0.016,4.635,0.127,6.94,0.333l-2.678-0.071l1.396,0.33l-1.592,0.016c2.043,0.142,4.07,0.039,6.093-0.308
		l-0.254-0.02l1.031-0.135c-7.036-0.894-14.462-1.526-21.529-1.302l-0.39,0.574c1.3-0.147,2.642-0.231,3.999-0.287L1150.573,41.968z
		 M1151.178,41.778c-0.011,0.001-0.02,0.001-0.031,0.001l0.845-0.278C1151.719,41.589,1151.45,41.687,1151.178,41.778z"/>
	<path fill="#353535" d="M1147.564,66.305C1147.268,66.277,1147.377,66.288,1147.564,66.305L1147.564,66.305z"/>
	<path fill="#353535" d="M1148.503,66.161c-1.552-0.061-3.106-0.141-4.66-0.245c1.381,0.16,2.763,0.301,4.145,0.427L1148.503,66.161
		z"/>
	<path fill="#353535" d="M1147.656,66.313c0.115,0.01,0.232,0.021,0.291,0.026C1147.828,66.329,1147.734,66.32,1147.656,66.313z"/>
	<path fill="#353535" d="M1156.004,64.251c-0.091-0.085-0.188-0.155-0.286-0.231c-0.016-0.038-0.044-0.067-0.047-0.113
		c-0.198-0.13-0.412-0.24-0.634-0.34c-1.171-0.621-2.59-0.717-4.049-0.345l3.312,0.532l-2.137,0.077L1156.004,64.251z"/>
	<path fill="#353535" d="M1144.375,63.097c-0.115,0.02-0.232,0.042-0.351,0.072c2.213,0.091,1.966-0.169,1.063-0.145
		c3.277-0.469,6.554-0.583,9.828-0.299c-0.021-0.112-0.042-0.225-0.063-0.338c-0.002-0.022,0.002-0.043,0.002-0.065l1.625-1.215
		C1152.408,61.561,1148.374,62.227,1144.375,63.097z"/>
	<path fill="#353535" d="M1152.564,58.58c2.713,0.432,6.941,0.318,9.675,0.685c-5.284,0.471-10.657,0.863-15.951,1.165
		c5.727,1.651,12.965,0.355,18.563-1.386C1160.826,58.836,1156.792,58.632,1152.564,58.58z"/>
	<path fill="#353535" d="M1484.933,57.062c0,0,0.068,0.004,0.16,0.009C1485.041,57.068,1484.995,57.065,1484.933,57.062z"/>
	<path fill="#353535" d="M1484.933,57.062c6.627,0.382,15.524,0.139,20.655-1.279c-9.263,0.372-18.5,0.857-27.16,1.6l7.588-0.121
		L1484.933,57.062z"/>
	<path fill="#353535" d="M1497.947,58.102l9.244-0.297C1504.186,57.643,1500.974,57.747,1497.947,58.102z"/>
	<path fill="#353535" d="M1530.001,59.958l-1.151,0.06c-1.615,0.067-3.23,0.149-4.848,0.251c7.646-0.284,15.328,0.608,22.771,2.405
		l-1.09,0.043c4.695,0.709,9.374,1.547,14.025,2.509l-5.392-0.935l2.678,0.765l-3.239-0.497c4.11,0.791,8.251,1.362,12.423,1.715
		l-0.498-0.106l2.124,0.226c-11.376-2.555-23.298-5.393-35.026-6.588c-3.078-0.408-6.167-0.773-9.277-1.053l-1.103,0.468
		l10.877,0.654L1530.001,59.958z"/>
	<path fill="#353535" d="M1510.58,79.511c6.589,0.591,13.191,0.897,19.76,1.671c0.301-0.238,0.91-0.5,1.593-0.718l2.189-0.442
		c-8.54-0.435-17.087-1.055-25.646-0.695C1509.377,79.417,1510.054,79.475,1510.58,79.511z"/>
</g>
</svg>
