<?xml version="1.0" encoding="utf-8"?>
<!-- Generator: Adobe Illustrator 15.0.0, SVG Export Plug-In . SVG Version: 6.00 Build 0)  -->
<!DOCTYPE svg PUBLIC "-//W3C//DTD SVG 1.1//EN" "http://www.w3.org/Graphics/SVG/1.1/DTD/svg11.dtd">
<svg version="1.1" id="Layer_1" xmlns="http://www.w3.org/2000/svg" xmlns:xlink="http://www.w3.org/1999/xlink" x="0px" y="0px"
	 width="100px" height="80.121px" viewBox="0 0 100 80.121" enable-background="new 0 0 100 80.121" xml:space="preserve">
<g opacity="0.5">
	<path fill="#FFFFFF" d="M45.167,9.417c-3.726,2.449-7.182,4.843-10.374,7.182c-3.192,2.341-5.961,4.788-8.299,7.342
		c-2.341,2.554-4.176,5.322-5.506,8.3c-1.332,2.979-1.995,6.384-1.995,10.214c0,1.173,0.104,2.314,0.319,3.432
		c0.213,1.117,0.479,2.314,0.798,3.591c0.639-0.531,1.86-1.117,3.671-1.755c1.809-0.639,3.775-0.958,5.905-0.958
		c4.573,0,8.06,1.543,10.454,4.629c2.394,3.088,3.591,6.81,3.591,11.172c0,2.449-0.479,4.735-1.436,6.863
		c-0.958,2.13-2.29,3.99-3.99,5.586c-1.703,1.596-3.646,2.849-5.826,3.751c-2.181,0.904-4.548,1.356-7.102,1.356
		c-4.365,0-8.14-0.852-11.332-2.554c-3.192-1.7-5.825-3.855-7.9-6.464c-2.075-2.607-3.618-5.507-4.628-8.698
		C0.503,59.213,0,56.127,0,53.148c0-7.343,1.011-13.727,3.032-19.153c2.02-5.426,4.788-10.214,8.3-14.364
		c3.511-4.149,7.554-7.765,12.129-10.853C28.035,5.692,32.878,2.769,37.985,0L45.167,9.417z M100,9.417
		c-3.724,2.449-7.182,4.843-10.374,7.182c-3.192,2.341-5.959,4.788-8.3,7.342s-4.176,5.322-5.506,8.3
		c-1.33,2.979-1.995,6.384-1.995,10.214c0,1.173,0.106,2.314,0.319,3.432s0.479,2.314,0.798,3.591
		c0.639-0.531,1.862-1.117,3.671-1.755c1.809-0.639,3.777-0.958,5.905-0.958c4.575,0,8.06,1.543,10.454,4.629
		c2.394,3.088,3.591,6.81,3.591,11.172c0,2.449-0.479,4.735-1.437,6.863c-0.957,2.13-2.287,3.99-3.99,5.586
		c-1.702,1.596-3.644,2.849-5.825,3.751c-2.182,0.904-4.549,1.356-7.103,1.356c-4.362,0-8.14-0.852-11.331-2.554
		c-3.192-1.7-5.826-3.855-7.9-6.464c-2.075-2.607-3.618-5.507-4.629-8.698c-1.013-3.192-1.517-6.278-1.517-9.257
		c0-7.343,1.011-13.727,3.033-19.153c2.02-5.426,4.788-10.214,8.299-14.364c3.512-4.149,7.555-7.765,12.13-10.853
		C82.869,5.692,87.711,2.769,92.818,0L100,9.417z"/>
</g>
</svg>
