<?xml version="1.0" encoding="utf-8"?>
<!-- Generator: Adobe Illustrator 15.0.0, SVG Export Plug-In . SVG Version: 6.00 Build 0)  -->
<!DOCTYPE svg PUBLIC "-//W3C//DTD SVG 1.1//EN" "http://www.w3.org/Graphics/SVG/1.1/DTD/svg11.dtd">
<svg version="1.1" id="Layer_1" xmlns="http://www.w3.org/2000/svg" xmlns:xlink="http://www.w3.org/1999/xlink" x="0px" y="0px"
	 width="85.973px" height="100px" viewBox="0 0 85.973 100" enable-background="new 0 0 85.973 100" xml:space="preserve">
<path opacity="0.05" fill="#FFFFFF" enable-background="new    " d="M73.304,4.953c0,0-13.572-4.953-30.319-4.953
	c-16.745,0-30.32,4.953-30.32,4.953c0,6.461-5.669,11.698-12.666,11.698C0,86.261,42.985,100,42.985,100
	s42.987-13.739,42.987-83.349C78.976,16.651,73.304,11.415,73.304,4.953 M76.271,24.624c-1.199,21.975-7.504,40.218-18.232,52.756
	c-5.456,6.379-10.961,10.06-14.619,12.026l-0.435,0.234l-0.436-0.234c-3.656-1.967-9.161-5.65-14.619-12.026
	C17.203,64.841,10.898,46.598,9.697,24.624l-0.033-0.603l0.54-0.269c4.693-2.339,8.368-6.207,10.35-10.893l0.177-0.419l0.44-0.112
	c5.084-1.295,12.996-2.841,21.815-2.841c8.893,0,16.77,1.538,21.811,2.828l0.439,0.114l0.178,0.42
	c1.976,4.689,5.652,8.562,10.353,10.904l0.539,0.269L76.271,24.624z"/>
<path opacity="0.05" fill="#FFFFFF" enable-background="new    " d="M63.907,14.545c-4.949-1.239-12.469-2.66-20.92-2.66
	c-8.382,0-15.934,1.428-20.927,2.674c-2.108,4.719-5.809,8.638-10.495,11.12c1.258,21.302,7.396,38.954,17.763,51.069
	c5.061,5.914,10.146,9.422,13.659,11.367c3.513-1.945,8.599-5.451,13.659-11.367c10.367-12.115,16.503-29.766,17.761-51.069
	C69.712,23.192,66.011,19.27,63.907,14.545"/>
</svg>
